<svg width="80" height="32" viewBox="0 0 80 32" fill="none" xmlns="http://www.w3.org/2000/svg">
<path d="M33.235 11.9972H24.0081V0.899246H15.8197V31.1037H24.0081V20.0283H33.2342V31.1037H41.4226V0.899246H33.235V11.9972Z" fill="#111111"/>
<path d="M0 9.05536L3.84727 9.07935V31.1045H12.0356V0.899963H0V9.05536Z" fill="#111111"/>
<path d="M80.0002 31.1045L72.5392 22.8393C74.1911 19.5036 74.5799 15.6835 73.6341 12.0837C72.6882 8.48399 70.4713 5.34753 67.3925 3.25306C64.3138 1.15859 60.5808 0.247443 56.8824 0.687724C53.184 1.128 49.7698 2.89001 47.2696 5.64863C44.7694 8.40726 43.3521 11.9764 43.279 15.6974C43.2059 19.4185 44.482 23.0404 46.872 25.8949C49.2619 28.7494 52.6043 30.644 56.2826 31.2289C59.9608 31.8138 63.7267 31.0498 66.8853 29.0776L68.6941 31.1037L80.0002 31.1045ZM58.7166 23.3938C57.2469 23.3967 55.8095 22.9638 54.5861 22.15C53.3627 21.3362 52.4084 20.1781 51.844 18.8221C51.2796 17.4661 51.1304 15.9733 51.4154 14.5326C51.7003 13.0919 52.4066 11.7681 53.4448 10.7286C54.483 9.68916 55.8064 8.98083 57.2476 8.69326C58.6889 8.4057 60.1831 8.55183 61.5411 9.11317C62.8992 9.6745 64.0601 10.6258 64.8769 11.8467C65.6937 13.0676 66.1297 14.5031 66.1297 15.9717C66.1309 16.9455 65.9402 17.91 65.5682 18.8101C65.1963 19.7102 64.6505 20.5283 63.9621 21.2176C63.2737 21.9068 62.4561 22.4538 61.556 22.8272C60.656 23.2006 59.6911 23.3932 58.7166 23.3938Z" fill="#111111"/>
</svg>
